{"title":"God on Trial-AC3-5,1-DVDRip[Eng]2008","uid":5366321,"size":1303312945,"categoryP":"video","categoryS":"movies","magnet":"?xt=urn:btih:63a80ea28b61870a4f35b6cff4ace3eec577d73e&amp;dn=God+on+Trial-AC3-5%2C1-DVDRip%5BEng%5D2008&amp;tr=udp%3A%2F%2Ftracker.openbittorrent.com%3A80&amp;tr=udp%3A%2F%2Fopen.demonii.com%3A1337&amp;tr=udp%3A%2F%2Ftracker.coppersurfer.tk%3A6969&amp;tr=udp%3A%2F%2Fexodus.desync.com%3A6969","seeders":12,"leechers":2,"uploader":"FatFreddy31","files":-1,"time":1266274212,"description":" &lt;a href=&quot;http://www.imdb.com/title/tt1173494/&quot; rel=&quot;nofollow&quot; target=&quot;_NEW&quot;&gt;http://www.imdb.com/title/tt1173494/&lt;/a&gt;\n\nUser Rating:7.3/10 - 444 votes\n\nDrama\n\nDirector:Andy DeEmmony\n\nCast:Josef Altin/Ashley Artus/Dominic Cooper/Lorcan Cranitch, and others.\n\nPlot:\nIn the Jewish tradition of arguing with God, Jewish prisoners in Auschwitz decide to put God on Trial.\n\nInfo:\n\nCovers included.\n\nGeneral\nComplete name                    : God on Trial-AC3-5,1-DVDRip[Eng]2008.avi\nFormat                           : AVI\nFormat/Info                      : Audio Video Interleave\nFile size                        : 1.21 GiB\nDuration                         : 1h 25mn\nOverall bit rate                 : 2 032 Kbps\nWriting application              : VirtualDubMod 1.5.4.1 (build 2178/release)\nWriting library                  : VirtualDubMod build 2178/release\n\nVideo\nID                               : 0\nFormat                           : MPEG-4 Visual\nFormat profile                   : Simple@L3\nFormat settings, BVOP            : No\nFormat settings, QPel            : No\nFormat settings, GMC             : No warppoints\nFormat settings, Matrix          : Default (H.263)\nCodec ID                         : XVID\nCodec ID/Hint                    : XviD\nDuration                         : 1h 25mn\nBit rate                         : 1 574 Kbps\nWidth                            : 640 pixels\nHeight                           : 352 pixels\nDisplay aspect ratio             : 16:9\nFrame rate                       : 25.000 fps\nResolution                       : 24 bits\nColorimetry                      : 4:2:0\nScan type                        : Progressive\nBits/(Pixel*Frame)               : 0.280\nStream size                      : 961 MiB (77%)\nWriting library                  : XviD 1.1.2 (UTC 2006-11-01)\n\nAudio\nID                               : 1\nFormat                           : AC-3\nFormat/Info                      : Audio Coding 3\nCodec ID                         : 2000\nDuration                         : 1h 25mn\nBit rate mode                    : Constant\nBit rate                         : 448 Kbps\nChannel(s)                       : 6 channels\nChannel positions                : Front: L C R, Surround: L R, LFE\nSampling rate                    : 48.0 KHz\nStream size                      : 274 MiB (22%)\nAlignment                        : Split accross interleaves\nInterleave, duration             : 40 ms (1.00 video frame)\nInterleave, preload duration     : 500 ms","torrent":{"xt":"urn:btih:63a80ea28b61870a4f35b6cff4ace3eec577d73e","amp;dn":"God+on+Trial-AC3-5%2C1-DVDRip%5BEng%5D2008","amp;tr":["udp%3A%2F%2Ftracker.openbittorrent.com%3A80","udp%3A%2F%2Fopen.demonii.com%3A1337","udp%3A%2F%2Ftracker.coppersurfer.tk%3A6969","udp%3A%2F%2Fexodus.desync.com%3A6969"],"infoHash":"63a80ea28b61870a4f35b6cff4ace3eec577d73e","infoHashBuffer":{"type":"Buffer","data":[99,168,14,162,139,97,135,10,79,53,182,207,244,172,227,238,197,119,215,62]},"announce":[],"urlList":[]}}